<svg xmlns="http://www.w3.org/2000/svg" width="734" height="736" viewBox="0 0 734 736">
  <path d="M 561 462 560 463 560 464 561 464 Z M 518 220 518 221 519 221 519 220 Z M 225 138 224 139 225 140 Z M 350 0 349 1 329 1 328 2 324 2 323 3 315 3 314 4 310 4 309 5 302 5 301 6 298 6 297 7 291 7 290 8 287 8 286 9 283 9 282 10 279 10 278 11 275 11 274 12 272 12 271 13 267 13 266 14 265 14 264 15 261 15 260 16 257 16 256 17 255 17 254 18 251 18 250 19 247 19 246 20 244 20 243 21 242 21 241 22 239 22 237 24 235 24 234 25 232 25 231 26 229 26 228 27 226 27 224 29 221 29 220 30 219 30 218 31 217 31 216 32 215 32 214 33 213 33 212 34 210 34 209 35 208 35 207 36 206 36 205 37 204 37 202 39 201 39 200 40 199 40 198 41 197 41 196 42 195 42 194 43 193 43 192 44 191 44 190 45 189 45 188 46 187 46 186 47 185 47 183 49 182 49 181 50 180 50 178 52 177 52 175 54 174 54 173 55 172 55 171 56 170 56 167 59 166 59 164 61 163 61 160 64 159 64 158 65 157 65 156 66 155 66 151 70 150 70 148 72 147 72 145 74 144 74 143 75 142 75 142 76 141 77 140 77 140 78 139 79 138 79 135 82 134 82 130 86 129 86 124 91 123 91 122 92 122 93 119 96 118 96 115 99 114 99 114 100 110 104 109 104 109 105 107 107 106 107 105 108 105 109 98 116 97 116 97 117 92 122 92 123 83 132 83 133 81 135 81 136 76 141 76 142 74 144 74 145 71 148 71 149 69 151 69 152 66 155 66 156 64 158 64 159 62 161 61 161 61 162 60 163 60 164 59 165 59 166 57 168 57 169 55 171 55 172 54 173 54 174 53 175 53 176 50 179 50 180 49 181 49 182 48 183 48 184 47 185 47 186 45 188 45 190 44 191 44 192 41 195 41 196 40 197 40 199 38 201 38 202 37 203 37 204 36 205 36 206 35 207 35 208 34 209 34 211 33 212 33 213 32 214 32 215 31 216 31 217 30 218 30 219 29 220 29 222 28 223 28 224 27 225 27 226 26 227 26 229 25 230 25 231 24 232 24 234 23 235 23 236 22 237 22 239 21 240 21 241 20 242 20 244 19 245 19 247 18 248 18 250 17 251 17 254 16 255 16 256 15 257 15 260 14 261 14 263 13 264 13 267 12 268 12 272 11 273 11 274 10 275 10 278 9 279 9 283 8 284 8 287 7 288 7 292 6 293 6 295 5 296 5 303 4 304 4 306 3 307 3 315 2 316 2 322 1 323 1 334 0 335 0 400 1 401 1 408 2 409 2 411 1 412 2 413 2 419 3 420 3 425 4 426 4 431 5 432 5 436 6 437 6 441 7 442 7 447 8 448 8 451 9 452 9 454 10 455 10 459 11 460 11 462 12 463 12 466 13 467 13 470 14 471 14 473 15 474 15 477 16 478 16 479 17 480 17 483 18 484 18 485 19 486 19 488 20 489 20 491 21 492 21 494 22 495 22 497 23 498 23 500 24 501 24 502 25 503 25 504 26 505 26 507 27 508 27 509 28 510 28 512 29 513 29 515 30 516 30 517 32 519 32 521 34 523 34 525 35 526 35 527 36 528 36 529 37 530 37 532 39 534 39 535 40 536 40 537 41 538 41 539 43 541 43 543 45 545 45 546 46 547 46 548 48 550 48 551 49 552 49 553 50 554 50 555 53 558 53 559 54 560 54 561 55 562 55 563 57 565 57 566 59 568 59 569 60 570 60 571 63 574 63 575 65 577 65 578 70 583 70 585 73 588 73 589 76 592 76 593 79 596 79 597 82 600 82 601 92 611 92 612 93 612 94 613 94 614 106 626 106 627 107 627 119 639 120 639 125 644 125 645 126 645 128 647 129 647 134 652 135 652 138 655 139 655 141 657 141 658 142 658 144 660 145 660 147 662 148 662 150 664 150 665 151 665 152 666 153 666 155 668 156 668 158 670 159 670 161 672 162 672 164 674 165 674 167 676 168 676 170 678 171 678 172 679 173 679 175 681 176 681 177 682 178 682 179 683 180 683 181 684 182 684 184 686 185 686 187 688 188 688 189 689 190 689 191 690 192 690 193 691 194 691 196 693 198 693 199 694 200 694 201 695 202 695 203 696 204 696 205 697 206 697 207 698 208 698 209 699 210 699 211 700 212 700 213 701 214 701 215 702 216 702 217 703 219 703 220 704 222 704 223 705 224 705 225 706 226 706 227 707 229 707 230 708 232 708 233 709 235 709 237 711 238 710 239 711 240 711 241 712 242 712 243 713 244 713 245 714 246 713 248 715 250 715 251 716 253 716 254 717 256 717 257 718 260 718 261 719 263 719 264 720 266 720 267 721 270 721 271 722 274 722 275 723 278 723 279 724 282 724 283 725 287 725 288 726 292 726 293 727 297 727 298 728 302 728 303 729 308 729 309 730 314 730 315 731 324 731 325 732 335 732 336 733 348 733 349 734 382 734 383 733 397 733 398 732 399 733 400 732 407 732 408 731 416 731 417 730 422 730 423 729 428 729 429 728 435 728 436 727 439 727 440 726 443 726 444 725 447 725 448 724 452 724 453 723 456 723 457 722 459 722 460 721 463 721 464 720 467 720 468 719 470 719 471 718 473 718 474 717 477 717 478 716 480 716 481 715 483 715 484 714 485 714 486 713 488 713 489 712 492 712 493 711 495 711 496 710 497 710 498 709 499 709 500 708 501 708 502 707 504 707 505 706 507 706 508 705 509 705 510 704 512 704 513 703 515 703 517 701 519 701 520 700 521 700 522 699 523 699 524 698 525 698 526 697 527 697 528 696 529 696 530 695 531 695 532 694 533 694 534 693 535 693 537 691 539 691 540 690 541 690 543 688 544 688 545 687 546 687 548 685 549 685 550 684 551 684 552 683 553 683 555 681 556 681 558 679 559 679 560 678 561 678 562 677 563 677 564 676 565 676 569 672 570 672 572 670 573 670 574 669 575 669 577 667 578 667 580 665 581 665 584 662 585 662 585 661 586 660 587 660 589 658 590 658 590 657 591 656 592 656 593 655 594 655 595 654 595 653 596 652 597 652 599 650 600 650 603 647 604 647 616 635 617 635 618 634 618 633 623 628 624 628 628 624 628 623 632 619 633 619 633 618 644 607 644 606 645 605 646 605 646 604 649 601 649 600 654 595 654 594 655 593 655 592 661 586 661 585 662 584 662 583 666 579 666 577 669 574 669 573 672 570 672 569 675 566 675 565 676 564 676 563 677 562 677 561 678 560 678 559 680 557 680 556 682 554 682 553 683 552 683 551 686 548 686 547 687 546 687 544 689 542 689 541 690 540 690 539 691 538 691 537 692 536 692 535 693 534 693 533 694 532 694 531 695 530 695 529 696 528 696 527 697 526 697 525 698 524 698 523 699 522 699 520 700 519 700 518 701 517 701 516 702 515 702 514 703 513 703 511 704 510 704 509 705 508 705 506 706 505 706 503 707 502 707 501 708 500 708 499 709 498 709 496 710 495 710 493 711 492 711 490 712 489 712 488 713 487 713 485 714 484 714 482 715 481 715 478 716 477 716 475 717 474 717 472 718 471 718 469 719 468 719 464 720 463 720 461 721 460 721 457 722 456 722 454 723 453 723 449 724 448 724 447 725 446 725 441 726 440 726 436 727 435 727 431 728 430 728 425 729 424 729 418 730 417 730 409 731 408 731 399 732 398 732 383 733 382 733 346 732 345 732 337 731 336 731 325 730 324 730 317 729 316 729 310 728 309 728 305 727 304 727 299 726 298 726 294 725 293 725 289 724 288 724 284 723 283 723 280 722 279 722 277 721 276 721 272 719 270 719 267 718 266 718 263 717 262 717 258 716 257 716 256 715 255 715 252 714 251 714 250 713 249 713 246 712 245 712 244 711 243 711 242 710 241 710 239 709 238 709 236 708 235 708 233 707 232 707 231 706 230 706 229 705 228 705 226 704 225 704 224 703 223 703 221 702 220 702 219 701 218 701 217 700 216 700 215 699 214 699 212 698 211 698 209 696 207 697 206 695 204 695 203 693 201 693 199 692 198 692 197 691 196 691 195 689 193 689 192 688 191 688 190 687 189 687 188 684 185 684 184 683 183 683 182 682 181 682 180 680 178 680 177 679 176 679 175 677 173 677 171 674 168 674 167 672 165 672 164 670 162 670 161 667 158 667 157 664 154 664 153 663 152 663 151 661 149 661 148 659 146 659 145 655 141 655 140 651 136 651 135 647 131 647 130 643 126 643 125 641 123 640 123 637 120 637 119 627 109 627 108 625 106 624 106 613 95 612 95 609 92 609 91 608 91 604 87 603 87 598 82 597 82 594 79 593 79 589 75 588 75 585 72 584 72 580 68 579 68 577 66 576 66 575 65 574 65 572 63 571 63 568 60 567 60 566 59 565 59 563 57 562 57 559 54 558 54 557 53 556 53 555 52 554 52 552 50 551 50 550 49 549 49 548 48 547 48 546 47 545 47 543 45 542 45 541 44 539 44 537 42 536 42 535 41 534 41 533 40 532 40 531 39 530 39 529 38 527 38 525 36 524 36 523 35 522 35 521 34 520 34 519 33 518 33 517 32 515 32 513 30 512 30 511 29 510 30 509 29 508 29 507 28 506 28 505 27 504 27 503 26 502 26 501 25 498 25 497 24 496 24 495 23 494 23 493 22 490 22 489 21 488 21 487 20 486 20 485 19 483 19 482 18 479 18 478 17 476 17 475 16 472 16 471 15 469 15 468 14 466 14 465 13 462 13 461 12 458 12 457 11 454 11 453 10 450 10 449 9 446 9 445 8 442 8 441 7 436 7 435 6 431 6 430 5 423 5 422 4 418 4 417 3 409 3 408 2 401 2 400 1 385 1 384 0 Z M 283 640 284 639 285 640 284 641 Z M 192 589 193 588 194 589 193 590 Z M 181 581 182 580 183 581 182 582 Z M 165 455 166 454 167 455 166 456 Z M 137 267 141 267 142 268 143 268 144 269 147 269 148 270 150 270 151 271 153 271 155 273 157 273 158 274 161 274 162 275 163 275 164 276 165 276 166 277 168 277 169 278 171 278 172 279 173 279 174 280 175 280 176 281 178 281 179 282 180 282 181 283 182 283 183 284 184 284 185 285 186 285 188 287 190 287 191 288 192 288 193 289 194 289 195 290 197 290 198 291 199 291 200 292 201 292 203 294 204 294 205 295 206 295 208 297 209 297 210 298 212 298 214 300 215 300 217 302 218 302 219 303 220 303 221 304 222 304 225 307 226 307 227 308 228 308 230 310 231 310 236 315 238 315 241 318 242 318 244 320 245 320 247 322 248 322 249 323 250 323 253 326 254 326 257 329 257 330 258 330 260 332 262 332 263 333 263 334 264 334 265 335 266 335 267 336 267 337 269 339 270 339 275 344 275 345 276 345 277 346 278 346 280 348 280 349 281 350 281 351 282 351 284 353 284 354 285 355 286 355 287 356 287 357 293 363 294 363 295 364 295 365 296 366 296 367 297 367 298 368 298 369 299 370 299 371 304 376 304 378 305 378 306 379 306 380 307 380 309 382 309 383 310 384 310 386 312 388 312 389 315 392 315 393 316 394 316 396 317 397 317 398 320 401 320 403 321 404 321 405 323 407 323 408 324 409 324 410 325 411 325 412 326 413 325 414 326 415 326 417 328 419 328 420 329 421 329 422 330 423 330 425 331 426 331 428 332 429 332 433 333 434 333 437 334 438 334 440 335 441 335 443 336 444 336 447 337 448 337 452 338 453 338 456 339 457 339 464 340 465 340 480 341 481 341 488 340 489 340 504 339 505 339 515 338 516 338 519 337 520 337 522 336 523 336 529 335 530 335 533 334 534 334 535 333 536 333 539 332 540 332 545 331 546 331 548 330 549 330 550 329 551 329 552 328 553 328 559 327 560 326 560 326 563 325 564 325 565 324 566 324 567 323 568 322 568 321 569 320 568 318 568 317 567 315 567 314 566 313 566 312 565 310 565 309 564 308 564 307 563 304 563 302 561 297 561 295 559 293 559 291 557 290 557 289 556 288 557 286 555 284 555 283 554 281 554 280 553 279 553 278 552 277 552 276 551 274 551 273 550 272 550 271 549 270 549 269 548 268 548 267 547 265 547 264 546 262 546 261 545 260 545 259 544 257 544 253 540 250 540 248 538 246 538 245 537 244 537 241 534 239 534 236 531 235 531 233 529 232 529 231 528 229 528 228 527 227 527 226 526 227 525 226 524 225 524 224 523 222 523 220 521 219 521 213 515 212 515 211 514 210 514 207 511 206 511 205 510 205 509 199 503 198 503 196 501 195 501 194 500 194 499 193 499 192 498 192 497 191 496 190 496 189 495 189 494 188 493 188 492 186 490 185 490 184 489 185 488 184 487 183 487 180 484 180 483 178 481 178 480 175 477 175 476 174 475 174 474 173 473 173 472 171 470 171 469 170 468 170 467 169 466 169 464 168 463 168 460 167 459 167 458 166 457 166 456 167 455 169 455 171 457 173 457 177 461 177 462 178 462 179 463 181 463 183 465 184 465 187 468 188 468 190 470 191 470 196 475 198 475 199 476 200 476 203 479 204 479 206 481 207 481 209 483 210 483 212 485 215 485 216 486 217 486 218 487 219 487 220 488 221 488 222 489 223 489 224 490 225 490 226 491 229 491 230 492 231 492 232 493 233 493 234 494 236 494 238 496 239 495 242 498 245 498 246 499 249 499 250 500 251 500 252 501 253 501 254 502 259 502 260 503 264 503 265 504 270 504 271 505 274 505 275 506 284 506 285 505 285 501 286 500 286 491 287 490 287 482 286 481 286 468 285 467 285 461 284 460 284 455 283 454 283 448 282 447 282 446 281 445 281 444 280 443 280 437 278 435 278 434 276 432 276 430 275 429 275 427 274 426 274 425 272 423 272 421 271 420 271 419 270 418 270 417 267 414 267 412 266 411 266 410 265 409 265 408 260 403 260 402 259 401 259 400 255 396 255 395 253 393 253 392 252 391 252 390 250 388 249 388 246 385 246 384 243 381 243 380 242 380 234 372 233 372 229 368 228 368 227 367 227 366 226 366 225 365 226 364 225 364 223 362 222 362 219 359 218 359 217 358 216 358 214 356 213 356 211 354 209 354 206 351 205 351 202 348 201 348 200 347 198 347 195 344 194 344 193 343 192 343 190 341 189 341 187 339 185 339 184 338 183 338 181 336 180 336 179 335 178 335 177 334 176 334 175 333 172 333 171 332 170 332 169 331 168 331 167 330 165 330 163 328 161 328 160 327 155 327 152 330 152 334 151 335 151 336 150 337 150 340 149 341 149 343 148 344 148 345 147 346 147 347 146 348 146 351 145 352 145 354 144 355 144 357 143 358 143 362 142 363 143 364 142 365 142 368 141 369 141 371 140 372 140 374 139 375 139 381 138 382 138 393 137 394 137 430 138 431 138 438 139 439 139 446 140 447 140 451 141 452 141 454 142 455 142 456 143 457 143 459 144 460 144 462 145 463 145 465 146 466 146 468 147 469 147 470 148 471 148 473 149 474 149 476 150 477 150 479 151 480 151 481 153 483 153 484 154 485 154 486 155 487 155 488 157 490 157 491 158 491 159 492 158 493 160 495 160 496 161 497 161 498 162 499 162 500 163 501 163 502 166 505 166 506 167 506 168 507 168 509 172 513 172 514 177 519 177 520 180 523 181 523 184 526 184 527 185 527 187 529 187 530 189 532 190 532 191 533 191 534 194 537 195 537 198 540 199 540 202 543 203 543 209 549 210 549 212 551 213 551 214 552 215 552 217 554 218 554 220 556 221 556 223 558 224 558 226 560 228 560 229 561 229 562 230 562 231 563 232 563 233 564 234 564 236 566 237 566 238 567 239 567 241 569 242 569 243 570 244 570 245 571 246 571 247 572 248 572 250 574 251 574 252 575 254 575 255 576 256 576 258 578 259 578 260 579 262 579 263 580 264 580 265 581 266 581 267 582 268 582 269 583 270 583 271 584 273 584 274 585 276 585 277 586 279 586 280 587 281 587 283 589 285 589 286 590 287 589 288 590 289 590 290 591 292 591 293 592 295 592 296 593 296 594 297 593 298 594 298 595 302 595 303 596 304 596 305 597 308 597 309 598 312 598 313 599 315 599 316 600 318 600 319 601 321 601 322 602 323 602 324 603 327 603 328 604 330 604 334 608 334 635 333 636 333 643 332 644 332 652 331 653 331 654 329 656 325 656 324 655 323 655 322 654 319 654 318 653 317 653 316 652 312 652 311 651 309 651 308 650 307 650 306 649 305 649 304 648 302 648 301 647 299 647 298 646 297 646 296 645 294 645 292 643 291 643 290 642 288 642 287 641 286 641 284 639 283 639 282 638 281 638 280 637 278 637 277 636 274 636 273 635 271 635 270 634 269 634 267 632 266 632 264 630 262 630 261 629 260 629 259 628 257 628 256 627 255 627 254 626 253 626 252 625 250 625 249 624 249 623 247 623 246 622 245 622 244 621 243 621 242 620 241 620 239 618 238 618 237 617 236 617 235 616 234 616 233 615 231 615 228 612 227 612 226 611 225 611 223 609 222 609 220 607 219 607 217 605 216 605 215 604 214 604 212 602 211 602 209 600 208 600 207 599 206 599 201 594 199 594 196 591 195 591 194 590 194 589 193 588 191 588 185 582 184 582 182 580 180 580 179 579 179 578 178 578 175 575 174 575 173 574 173 573 170 570 169 570 158 559 157 559 156 558 156 556 154 554 153 554 152 553 152 552 151 552 149 550 149 549 142 542 142 541 141 540 141 539 136 534 136 533 135 532 135 531 131 527 131 526 128 523 128 522 125 519 125 518 123 516 123 514 122 513 122 512 120 510 120 509 119 508 119 507 118 506 118 505 116 503 116 501 115 500 115 499 112 496 112 495 111 494 111 491 109 489 109 487 108 486 108 484 107 483 107 482 106 481 106 479 105 478 105 475 104 474 104 471 103 470 103 468 102 467 102 465 101 464 101 463 100 462 100 460 99 459 99 455 98 454 99 453 98 452 98 449 97 448 97 442 96 441 96 436 95 435 95 420 94 419 94 402 95 401 95 385 96 384 96 378 97 377 97 372 98 371 98 366 99 365 99 361 100 360 100 358 101 357 101 355 102 354 102 351 103 350 103 345 104 344 104 342 105 341 105 340 106 339 106 337 107 336 107 332 108 331 108 328 109 327 109 326 110 325 110 324 111 323 111 320 112 319 112 318 113 317 113 316 114 315 114 314 115 313 115 311 116 310 116 309 117 308 117 305 118 304 118 303 119 302 119 301 120 300 120 299 121 298 121 296 122 295 122 294 123 293 123 292 124 291 124 289 125 288 125 287 126 286 126 285 127 284 127 283 128 282 128 281 129 280 129 279 132 276 132 275 133 274 133 272 134 271 134 270 Z M 605 256 606 255 607 255 609 257 609 260 610 261 610 262 611 263 611 265 612 266 612 267 613 268 613 270 614 271 614 273 615 274 615 276 616 277 616 280 617 281 617 285 618 286 618 288 619 289 619 291 620 292 620 294 621 295 621 297 623 299 623 303 624 304 624 307 625 308 625 313 626 314 626 320 627 321 627 322 628 323 627 324 627 325 628 326 628 328 629 329 629 333 630 334 630 338 631 339 631 347 632 348 632 354 633 355 633 359 634 360 634 366 635 367 635 379 636 380 636 401 637 402 636 403 636 405 637 406 636 407 637 408 637 409 636 410 636 432 635 433 636 434 636 437 635 438 635 446 634 447 634 450 633 451 633 454 632 455 632 460 631 461 631 468 630 469 630 470 629 471 629 474 628 475 628 481 627 482 627 483 626 484 626 486 625 487 625 489 624 490 624 494 623 495 623 496 621 498 621 500 619 502 619 504 618 505 618 508 617 509 617 511 616 512 616 513 615 514 615 515 614 516 614 518 613 519 613 520 611 522 611 523 610 524 610 526 609 527 609 528 605 532 605 533 604 534 604 536 600 540 600 542 596 546 596 547 594 549 594 550 590 554 590 555 589 556 588 556 588 557 587 558 587 559 586 560 585 560 585 561 582 564 581 564 580 565 580 566 576 570 575 570 575 571 565 581 564 581 559 586 558 586 557 587 556 587 549 594 547 594 546 595 545 595 542 598 541 598 540 599 539 599 538 600 538 601 537 602 536 602 534 604 532 604 529 607 528 607 527 608 526 608 525 609 524 609 522 611 520 611 519 612 518 612 517 613 515 613 514 614 513 614 512 615 511 615 510 616 509 616 508 617 507 617 505 619 503 619 502 620 499 620 496 623 494 623 493 624 491 624 490 625 489 625 488 626 485 626 484 627 482 627 481 628 477 628 476 629 475 629 474 630 473 630 472 631 468 631 467 632 465 632 464 633 463 633 462 634 459 634 458 635 454 635 453 636 447 636 446 637 443 637 442 638 441 638 440 639 438 639 437 640 435 640 434 641 431 641 430 642 429 641 428 642 425 642 424 643 416 643 415 644 414 644 413 643 412 644 409 641 409 640 408 639 409 638 408 637 408 635 407 634 407 631 406 630 406 629 405 628 405 627 404 626 404 622 403 621 403 616 402 615 402 613 401 612 401 609 400 608 400 607 399 606 399 599 398 598 398 594 397 593 397 591 396 590 397 589 397 588 396 587 396 585 395 584 395 581 394 580 394 576 393 575 393 569 392 568 392 559 391 558 391 549 390 548 390 539 389 538 389 506 390 505 390 490 391 489 391 482 392 481 392 474 393 473 393 467 394 466 394 461 395 460 395 458 396 457 396 455 397 454 397 452 398 451 398 447 399 446 398 445 399 444 399 443 400 442 400 440 401 439 401 438 402 437 402 436 403 435 402 434 403 433 403 430 404 429 404 428 405 427 405 425 406 424 406 423 407 422 407 421 408 420 408 419 409 418 409 417 410 416 410 414 411 413 411 412 413 410 413 409 414 408 414 407 415 406 415 405 416 404 416 403 419 400 419 398 422 395 422 394 423 393 423 392 428 387 428 386 431 383 431 382 434 379 434 378 436 376 436 375 439 372 440 372 441 371 441 370 445 366 446 366 446 365 450 361 451 361 455 357 456 357 458 355 459 355 460 354 460 353 461 352 462 352 463 351 464 351 468 347 469 347 472 344 473 344 475 342 476 342 478 340 479 340 480 339 481 339 482 338 483 338 483 337 484 336 485 336 486 335 487 335 488 334 489 334 490 333 491 333 492 332 493 332 494 331 496 331 497 330 498 330 500 328 501 328 502 327 503 327 504 326 505 326 506 325 508 325 509 324 511 324 512 323 515 323 516 322 517 322 517 321 518 320 519 320 520 319 523 319 524 318 527 318 528 317 530 317 531 316 533 316 534 315 535 315 536 314 542 314 543 315 543 317 544 318 544 319 545 320 545 323 547 325 547 328 548 329 548 331 549 332 549 334 550 335 550 338 551 339 551 342 552 343 552 344 553 345 553 350 554 351 554 353 555 354 555 355 556 356 556 360 557 361 557 363 558 364 558 367 559 368 559 372 560 373 560 376 561 377 561 383 562 384 562 388 563 389 563 394 564 395 563 396 564 397 564 405 565 406 565 415 566 416 566 422 567 423 567 442 566 443 566 450 565 451 565 456 564 457 565 458 564 459 564 463 563 464 563 467 562 468 562 470 561 471 561 475 560 476 560 479 559 480 559 481 558 482 558 484 557 485 557 486 556 487 556 488 554 490 554 492 553 493 553 494 552 495 552 496 551 497 551 498 550 499 550 501 549 502 549 503 547 505 545 505 544 504 544 503 543 502 543 490 544 489 544 488 543 487 543 483 542 482 542 468 541 467 541 458 540 457 540 453 539 452 539 446 538 445 538 440 537 439 537 434 536 433 536 431 535 430 535 426 534 425 534 422 533 421 533 419 532 418 532 416 531 415 531 413 530 412 530 409 529 408 529 406 528 405 528 404 527 403 527 401 526 400 526 398 524 396 524 395 523 394 523 393 522 392 522 391 520 389 520 388 519 387 519 386 516 383 514 383 513 382 512 383 511 383 510 384 508 384 505 387 504 387 503 388 502 388 501 389 500 389 498 391 497 391 496 392 496 393 495 394 494 394 492 396 491 396 490 397 490 398 489 399 487 399 485 401 485 402 482 405 481 405 477 409 477 410 476 411 475 411 475 412 474 413 473 413 474 414 473 415 472 415 471 416 471 417 469 419 468 419 469 420 468 421 467 421 466 422 466 423 465 424 465 425 464 426 464 427 463 428 462 428 461 429 461 430 460 431 460 433 458 435 458 436 456 438 456 440 455 441 455 442 454 443 454 444 452 446 452 448 451 449 451 450 450 451 450 452 449 453 449 454 448 455 448 457 447 458 447 462 446 463 446 464 445 465 445 468 444 469 444 472 443 473 443 478 442 479 442 481 441 482 441 484 440 485 440 490 439 491 439 509 438 510 438 536 439 537 439 546 440 547 440 559 441 560 441 566 442 567 442 568 443 569 443 574 444 575 444 582 445 583 445 585 446 586 445 587 446 588 446 590 447 591 448 591 449 592 453 592 454 591 456 591 457 590 460 590 461 589 464 589 465 588 468 588 469 587 470 587 471 586 473 586 474 585 477 585 478 584 480 584 481 583 482 583 483 582 484 582 485 581 486 581 487 580 489 580 490 579 491 579 492 578 494 578 496 576 498 576 500 574 501 574 502 573 504 573 506 571 507 571 508 570 509 570 511 568 513 568 514 567 515 567 518 564 519 564 520 563 521 563 525 559 526 559 527 558 528 558 533 553 534 553 539 548 540 548 547 541 547 540 548 539 549 539 552 536 552 535 557 530 557 529 560 526 560 525 563 522 563 521 565 519 565 518 568 515 568 514 569 513 569 512 570 511 570 510 571 509 571 508 572 507 572 506 574 504 574 503 576 501 576 500 577 499 577 497 578 496 578 494 579 493 579 491 580 490 580 489 581 488 581 487 582 486 582 485 583 484 583 481 584 480 584 477 586 475 586 472 587 471 587 468 588 467 588 463 589 462 589 459 590 458 590 454 591 453 591 447 592 446 592 438 593 437 593 390 592 389 592 384 591 383 591 379 590 378 590 371 589 370 589 365 588 364 588 358 587 357 587 355 586 354 586 351 585 350 585 346 584 345 584 341 583 340 583 337 582 336 582 335 581 334 581 330 580 329 580 327 579 326 579 323 578 322 578 317 577 316 577 315 576 314 576 313 575 312 575 310 574 309 574 307 573 306 573 304 572 303 572 302 571 301 571 299 570 298 570 295 569 294 569 292 568 291 568 288 566 286 566 282 567 281 568 281 571 278 572 278 574 276 575 276 576 275 577 275 579 273 580 273 583 270 584 270 586 268 587 268 589 266 590 266 591 265 592 265 594 263 595 263 597 261 598 261 600 259 601 259 604 256 Z M 357 85 358 84 387 84 388 85 398 85 399 86 402 86 403 87 408 87 409 88 414 88 415 89 416 89 417 90 419 90 420 91 424 91 425 92 427 92 428 93 431 93 432 94 433 94 434 95 435 95 436 96 438 96 439 97 441 97 442 98 443 98 444 99 446 99 448 101 450 101 452 103 453 103 454 104 456 104 457 105 458 105 460 107 461 107 462 108 463 108 464 109 466 109 468 111 468 112 469 112 471 114 472 114 473 115 474 115 479 120 480 120 482 122 483 122 484 123 485 123 487 125 488 125 493 130 494 130 498 134 499 134 500 135 500 136 501 137 501 138 502 138 505 141 506 141 507 142 507 143 510 146 510 147 511 147 512 148 512 149 513 150 514 150 517 153 517 154 521 158 522 158 525 161 525 162 527 164 527 165 528 166 528 167 527 168 527 169 526 170 525 170 525 171 524 172 523 172 522 173 522 174 521 175 520 175 517 178 517 179 516 180 515 180 510 185 509 185 507 187 506 187 506 188 505 189 504 189 502 191 501 191 499 193 498 193 496 195 495 195 492 198 491 198 489 200 488 200 487 201 486 201 486 202 485 203 483 203 481 205 480 205 480 206 479 207 478 207 477 208 476 208 475 209 475 210 474 211 473 211 472 212 470 212 469 213 468 213 466 215 465 215 463 217 462 217 461 218 460 218 459 219 458 219 456 221 455 221 453 223 452 223 450 225 449 225 448 226 447 226 446 227 444 227 442 229 439 229 437 231 436 231 435 232 434 232 433 233 432 233 430 235 426 235 425 236 422 236 421 237 420 237 419 238 417 238 415 240 412 240 411 241 410 241 409 242 408 242 407 243 401 243 400 244 399 243 398 244 395 244 394 245 391 245 390 246 387 246 386 247 381 247 380 248 369 248 368 247 367 247 366 248 365 247 362 247 361 246 354 246 353 245 352 245 351 244 350 244 349 243 350 242 352 242 353 241 354 241 355 240 356 240 357 239 358 239 359 238 362 238 363 237 364 237 365 236 366 236 367 235 368 235 369 234 371 234 372 233 373 233 374 232 375 232 377 230 379 230 380 229 382 229 384 227 386 227 389 224 390 224 391 223 393 223 394 222 395 222 397 220 398 220 400 218 401 218 402 217 404 217 408 213 409 213 411 211 412 211 416 207 417 207 418 206 419 206 422 203 423 203 425 201 426 201 429 198 430 198 430 197 432 195 433 195 434 194 435 194 435 193 437 191 438 191 446 183 446 182 447 181 447 180 450 177 451 177 451 176 452 175 452 174 453 173 453 172 454 171 454 168 452 166 452 165 451 165 450 164 450 163 449 163 446 160 445 160 442 157 441 157 440 156 438 156 435 153 434 153 433 152 432 152 431 151 430 151 429 150 428 150 427 149 426 149 425 148 423 148 422 147 420 147 418 145 416 145 414 143 413 144 412 143 409 143 408 142 407 142 406 141 403 141 402 140 398 140 397 139 394 139 393 138 388 138 387 137 386 137 385 136 351 136 350 137 342 137 341 138 338 138 337 139 332 139 331 140 326 140 325 141 322 141 321 142 320 142 319 143 317 143 316 144 315 144 314 145 311 145 310 146 307 146 306 147 304 147 303 148 300 148 300 149 299 150 297 150 296 151 294 151 293 152 291 152 290 153 289 153 288 154 287 154 286 155 285 155 284 156 283 156 282 157 281 157 280 158 279 158 278 159 277 159 276 160 274 160 273 161 272 161 270 163 268 163 265 166 264 166 263 167 262 167 261 168 259 168 254 173 253 173 252 174 251 174 249 176 248 176 246 178 245 178 244 179 243 179 241 181 240 181 240 182 235 187 236 188 236 190 237 191 238 191 240 193 240 195 243 198 243 200 244 201 245 201 246 202 246 203 252 209 252 211 253 211 255 213 255 214 257 216 258 216 263 221 263 222 264 223 265 223 267 225 267 226 268 227 270 227 272 229 272 230 273 230 275 232 277 232 284 239 286 239 292 245 294 245 295 246 296 246 299 249 300 249 301 250 302 250 303 251 304 251 305 252 306 252 307 253 308 253 309 254 310 254 311 255 312 255 313 256 315 256 316 257 317 257 318 258 319 258 320 259 322 259 323 260 324 260 325 261 328 261 329 262 331 262 332 263 333 263 334 264 336 264 337 265 341 265 342 266 346 266 347 267 351 267 352 268 356 268 357 269 363 269 364 270 369 270 370 269 371 270 395 270 396 269 403 269 404 268 410 268 411 267 416 267 417 266 419 266 420 265 423 265 424 264 426 264 427 263 431 263 432 262 435 262 436 261 437 261 438 260 439 260 440 259 443 259 444 258 446 258 447 257 448 257 449 256 451 256 452 255 453 255 454 254 455 254 456 253 458 253 459 252 460 252 461 251 462 251 463 250 464 250 465 249 467 249 468 248 469 248 471 246 472 246 473 245 474 245 475 244 476 244 477 243 478 243 479 242 480 242 482 240 483 240 485 238 486 238 487 237 488 237 489 236 490 236 491 235 493 235 495 233 496 233 500 229 501 229 503 227 504 227 506 225 507 225 508 224 509 224 510 223 511 223 512 222 513 222 514 221 515 221 515 220 517 218 518 218 523 213 524 213 525 212 526 212 527 211 528 211 528 210 532 206 533 206 536 203 537 203 541 199 542 199 545 196 546 196 547 195 547 194 549 192 550 192 556 186 557 186 557 185 558 184 559 184 561 182 562 182 565 179 569 179 572 182 573 182 574 183 575 183 578 186 579 186 582 189 583 189 584 190 585 190 588 193 589 193 590 194 591 194 592 195 593 195 595 197 596 197 598 199 599 199 606 206 606 207 603 210 602 210 600 212 600 213 599 214 598 214 592 220 591 220 591 221 590 222 589 222 585 226 584 226 583 227 583 228 582 229 581 229 577 233 576 233 574 235 573 235 571 237 570 237 570 238 569 239 568 239 566 241 565 241 564 242 563 242 562 243 561 243 555 249 554 249 553 250 552 250 550 252 549 252 548 253 547 253 547 254 546 255 544 255 542 257 541 257 540 258 539 258 537 260 536 260 533 263 532 263 530 265 529 265 528 266 526 266 524 268 523 268 520 271 518 271 517 272 516 272 514 274 513 274 511 276 508 276 507 277 506 277 504 279 503 279 501 281 500 281 499 282 497 282 496 283 495 283 494 284 492 284 491 285 489 285 488 286 487 286 486 287 485 287 484 288 483 288 482 289 480 289 479 290 477 290 476 291 475 291 473 293 471 293 470 294 467 294 466 295 465 295 464 296 463 296 462 297 460 297 459 298 458 298 457 299 453 299 452 300 450 300 448 302 447 301 446 302 443 302 442 303 441 303 440 304 437 304 436 305 432 305 431 306 426 306 425 307 423 307 422 308 416 308 415 309 409 309 408 310 405 310 404 311 393 311 392 312 387 312 386 311 385 311 384 312 378 312 377 311 370 311 369 312 366 312 365 311 358 311 357 310 356 310 355 311 354 311 353 310 345 310 344 309 341 309 340 308 338 308 337 307 334 307 333 306 330 306 329 305 324 305 323 304 321 304 319 302 318 302 317 301 315 301 314 300 310 300 309 299 308 299 307 298 305 298 304 297 302 297 300 295 299 295 298 294 297 294 296 293 294 293 293 292 291 292 290 291 289 291 287 289 286 289 283 286 282 286 281 285 279 285 278 284 277 284 275 282 274 282 272 280 271 280 266 275 265 275 264 274 263 274 262 273 261 273 259 271 257 271 256 270 256 269 255 268 253 268 249 264 248 264 247 263 247 262 246 261 245 261 243 259 243 258 242 258 240 256 239 256 232 249 231 249 230 248 230 247 228 245 228 244 227 243 226 243 221 238 221 236 220 236 211 227 211 226 207 222 207 221 203 217 203 216 202 215 202 214 199 211 199 210 198 210 197 209 197 208 196 208 195 207 195 206 193 204 194 203 193 203 190 200 190 198 189 197 189 196 186 193 186 192 183 189 183 187 182 187 180 185 180 184 179 183 179 181 178 180 178 179 174 175 174 172 175 171 175 170 176 169 177 169 182 164 183 164 184 163 185 163 186 162 186 161 188 159 189 159 190 158 191 158 196 153 197 153 199 151 200 151 202 149 203 149 208 144 209 144 210 143 211 143 213 141 214 141 215 140 216 140 219 137 220 137 222 135 223 135 224 134 225 134 227 132 228 132 229 131 230 131 231 130 232 130 235 127 236 127 237 126 238 126 240 124 241 124 244 121 247 121 248 120 249 120 251 118 252 118 253 117 255 117 257 115 259 115 262 112 263 112 264 111 266 111 267 110 268 110 269 109 271 109 272 108 273 108 274 107 275 107 276 106 277 106 278 105 281 105 282 104 283 104 284 103 285 103 286 102 287 102 288 101 290 101 291 100 292 100 293 99 295 99 296 98 300 98 301 97 303 97 305 95 308 95 309 94 311 94 312 93 316 93 317 92 319 92 320 91 322 91 323 90 326 90 327 89 330 89 331 88 335 88 336 87 341 87 342 86 349 86 350 85 Z" fill="#0066FF" fill-rule="evenodd"/>
</svg>